<svg xmlns="http://www.w3.org/2000/svg" width="24" height="27" fill="none"><g clip-path="url(#a)" filter="url(#b)" opacity=".5"><path fill="#000" d="M18.3 5.71a.996.996 0 0 0-1.41 0L12 10.59 7.11 5.7A.996.996 0 1 0 5.7 7.11L10.59 12 5.7 16.89a.996.996 0 1 0 1.41 1.41L12 13.41l4.89 4.89a.996.996 0 1 0 1.41-1.41L13.41 12l4.89-4.89c.38-.38.38-1.02 0-1.4Z"/></g><defs><clipPath id="a"><path fill="#fff" d="M0 0h24v24H0z"/></clipPath><filter id="b" width="32" height="32" x="-4" y="0" color-interpolation-filters="sRGB" filterUnits="userSpaceOnUse"><feFlood flood-opacity="0" result="BackgroundImageFix"/><feColorMatrix in="SourceAlpha" result="hardAlpha" values="0 0 0 0 0 0 0 0 0 0 0 0 0 0 0 0 0 0 127 0"/><feOffset dy="4"/><feGaussianBlur stdDeviation="2"/><feComposite in2="hardAlpha" operator="out"/><feColorMatrix values="0 0 0 0 0 0 0 0 0 0 0 0 0 0 0 0 0 0 0.25 0"/><feBlend in2="BackgroundImageFix" result="effect1_dropShadow_703_129"/><feBlend in="SourceGraphic" in2="effect1_dropShadow_703_129" result="shape"/></filter></defs></svg>